# xmcd CD database file
#
# Track frame offsets:
#	150
#	25030
#	46192
#	68482
#	85822
#	116210
#	137477
#	167022
#	196467
#	217787
#
# Disc length: 3032 seconds
#
# Revision: 0
# Processed by: cddbd v1.5.2PL0 Copyright (c) Steve Scherf et al.
# Submitted via: CDex 1.51
#
DISCID=7c0bd60a
DTITLE=Roland HOLLIK QUARTETT - Last Friends
DYEAR=2000
DGENRE=Jazz
TTITLE0=Last Friends
TTITLE1=Georgia On My Mind
TTITLE2=House In The Morning Sun
TTITLE3=One For Bill
TTITLE4=Sad Samba
TTITLE5=Isn't She Lovely
TTITLE6=Korn Blues
TTITLE7=Doxy
TTITLE8=C&C Blues
TTITLE9=Last Shuffle Blues
EXTD=YEAR: 2000
EXTT0=
EXTT1=
EXTT2=
EXTT3=
EXTT4=
EXTT5=
EXTT6=
EXTT7=
EXTT8=
EXTT9=
PLAYORDER=
